<?xml version="1.0" encoding="UTF-8"?><svg id="a" xmlns="http://www.w3.org/2000/svg" viewBox="0 0 50 50"><defs><style>.b{font-family:SourceCodeRoman-ExtraLight, 'Source Code Variable';font-size:15px;font-variation-settings:'wght' 200;font-weight:200;letter-spacing:.15em;}</style></defs><path d="m3.376,33.267l3.157-.197c.068.513.208.903.417,1.172.342.435.83.652,1.465.652.474,0,.838-.111,1.095-.334.256-.222.384-.479.384-.772,0-.278-.122-.527-.366-.747s-.811-.427-1.699-.623c-1.455-.326-2.493-.762-3.113-1.303-.625-.543-.938-1.233-.938-2.073,0-.552.16-1.073.479-1.563.32-.491.801-.877,1.443-1.157.642-.281,1.522-.42,2.64-.42,1.372,0,2.418.254,3.138.764.72.511,1.149,1.322,1.286,2.436l-3.127.183c-.083-.482-.258-.834-.523-1.055-.267-.219-.634-.329-1.103-.329-.386,0-.676.082-.872.245-.195.164-.293.363-.293.598,0,.171.081.324.242.461.156.142.527.273,1.113.396,1.45.312,2.489.629,3.116.948.627.32,1.084.717,1.37,1.19.285.474.428,1.003.428,1.589,0,.689-.19,1.324-.571,1.904-.381.582-.913,1.022-1.597,1.322-.684.301-1.545.451-2.585.451-1.826,0-3.091-.352-3.794-1.055s-1.101-1.598-1.194-2.682Z"/><path d="m14.052,26.082h3.319v3.757h3.625v-3.757h3.332v10.737h-3.332v-4.344h-3.625v4.344h-3.319v-10.737Z"/><path d="m25.365,31.458c0-1.753.487-3.117,1.465-4.094.976-.977,2.336-1.464,4.079-1.464,1.787,0,3.164.479,4.131,1.438.967.96,1.45,2.304,1.45,4.032,0,1.255-.211,2.284-.634,3.087-.422.804-1.032,1.429-1.831,1.875-.798.447-1.793.671-2.984.671-1.211,0-2.213-.193-3.007-.579-.793-.386-1.437-.996-1.93-1.831s-.739-1.88-.739-3.135Zm3.317.015c0,1.084.201,1.863.604,2.337.402.474.95.71,1.645.71.712,0,1.264-.231,1.654-.696.391-.463.586-1.296.586-2.497,0-1.011-.203-1.749-.611-2.216-.407-.466-.961-.699-1.658-.699-.67,0-1.207.237-1.611.711-.406.474-.608,1.257-.608,2.351Z"/><path d="m37.513,26.082h5.516c1.201,0,2.101.286,2.698.856.599.572.897,1.385.897,2.439,0,1.084-.326,1.932-.978,2.541-.652.611-1.647.916-2.985.916h-1.816v3.984h-3.332v-10.737Zm3.332,4.577h.813c.64,0,1.089-.11,1.348-.333.259-.222.388-.506.388-.853,0-.338-.112-.623-.336-.857-.226-.234-.647-.352-1.268-.352h-.945v2.395Z"/><path d="m8.78,22.64c-.74,0-1.402-.148-1.987-.443-.585-.294-1.045-.722-1.38-1.282s-.502-1.235-.502-2.025c0-.8.175-1.482.525-2.048.35-.564.817-.995,1.402-1.29.585-.294,1.232-.442,1.942-.442.61,0,1.118.113,1.522.337.405.225.753.483,1.043.772l-.3.33c-.311-.3-.647-.545-1.013-.735s-.783-.285-1.253-.285c-.67,0-1.26.143-1.77.428-.51.285-.908.68-1.193,1.185-.285.505-.427,1.087-.427,1.748s.14,1.24.42,1.74c.28.5.675.89,1.185,1.17.51.28,1.105.42,1.785.42.5,0,.958-.102,1.373-.307s.787-.462,1.117-.772l.271.33c-.36.34-.768.621-1.223.84s-.968.33-1.538.33Z"/><path d="m19.31,22.64c-.63,0-1.205-.148-1.725-.443-.521-.294-.938-.722-1.253-1.282s-.473-1.235-.473-2.025c0-.8.157-1.482.473-2.048.315-.564.732-.995,1.253-1.29.52-.294,1.095-.442,1.725-.442s1.205.148,1.725.442c.521.295.938.726,1.253,1.29.315.565.473,1.248.473,2.048,0,.79-.157,1.465-.473,2.025s-.732.988-1.253,1.282c-.52.295-1.095.443-1.725.443Zm0-.42c.57,0,1.08-.14,1.53-.42.45-.28.802-.67,1.058-1.17.255-.5.382-1.08.382-1.74s-.127-1.243-.382-1.748c-.256-.505-.607-.9-1.058-1.185s-.96-.428-1.53-.428-1.078.143-1.522.428c-.445.285-.798.68-1.058,1.185s-.39,1.087-.39,1.748.13,1.24.39,1.74.612.89,1.058,1.17c.444.28.952.42,1.522.42Z"/><path d="m30.29,22.64c-.94,0-1.705-.323-2.296-.968-.59-.645-.885-1.572-.885-2.782,0-.77.16-1.438.48-2.002.319-.565.739-1.002,1.26-1.312.52-.31,1.08-.465,1.68-.465.46,0,.888.093,1.283.278.395.185.777.442,1.147.772h.029l-.029-1.5v-3.03h.449v10.83h-.39l-.06-1.11h-.03c-.32.34-.708.64-1.163.9s-.947.39-1.477.39Zm.029-.42c.44,0,.883-.122,1.328-.367.444-.245.882-.593,1.312-1.042v-4.14c-.431-.41-.848-.702-1.253-.877-.405-.175-.808-.263-1.207-.263-.54,0-1.03.15-1.471.45-.439.3-.79.705-1.05,1.215-.26.51-.39,1.075-.39,1.695,0,.99.242,1.792.728,2.407.484.615,1.152.922,2.002.922Z"/><path d="m42.26,22.64c-.681,0-1.306-.15-1.875-.45-.57-.3-1.025-.73-1.365-1.29s-.51-1.23-.51-2.01.167-1.453.502-2.018.775-1,1.32-1.305c.545-.305,1.127-.458,1.747-.458.641,0,1.198.13,1.673.39.475.26.845.638,1.11,1.132.265.495.397,1.087.397,1.778v.225c0,.081-.011.165-.03.255h-6.57v-.42h6.45l-.27.24c0-1.08-.258-1.88-.772-2.4-.516-.52-1.178-.78-1.988-.78-.52,0-1.015.133-1.484.397-.471.265-.855.645-1.155,1.14s-.45,1.093-.45,1.792c0,.72.152,1.33.458,1.83.305.5.705.88,1.2,1.14.494.26,1.032.39,1.612.39.51,0,.968-.075,1.372-.225.405-.15.777-.345,1.118-.585l.21.39c-.311.2-.676.39-1.096.57-.42.18-.955.27-1.604.27Z"/><text class="b" transform="translate(49.098 58.623)"><tspan x="0" y="0">code</tspan></text></svg>